<svg width="50" height="50" viewBox="0 0 50 50" fill="none" xmlns="http://www.w3.org/2000/svg">
<rect x="1.06226" y="0.968146" width="48.6339" height="48.026" rx="2.12773" fill="#0B0616"/>
<rect x="1.06226" y="0.968146" width="48.6339" height="48.026" rx="2.12773" stroke="#413854" stroke-width="0.607924"/>
<mask id="mask0_283_368" style="mask-type:alpha" maskUnits="userSpaceOnUse" x="10" y="9" width="31" height="32">
<rect x="10.1812" y="9.78296" width="30.3962" height="30.3962" fill="#D9D9D9"/>
</mask>
<g mask="url(#mask0_283_368)">
<path d="M18.4134 23.7145L25.3792 12.3159L32.3449 23.7145H18.4134ZM32.3449 37.6461C30.7618 37.6461 29.4161 37.092 28.308 35.9838C27.1998 34.8756 26.6457 33.5299 26.6457 31.9468C26.6457 30.3636 27.1998 29.018 28.308 27.9098C29.4161 26.8016 30.7618 26.2475 32.3449 26.2475C33.9281 26.2475 35.2737 26.8016 36.3819 27.9098C37.4901 29.018 38.0442 30.3636 38.0442 31.9468C38.0442 33.5299 37.4901 34.8756 36.3819 35.9838C35.2737 37.092 33.9281 37.6461 32.3449 37.6461ZM13.9806 37.0128V26.8808H24.1126V37.0128H13.9806ZM32.3449 35.1131C33.2315 35.1131 33.9809 34.807 34.593 34.1948C35.2051 33.5827 35.5112 32.8333 35.5112 31.9468C35.5112 31.0602 35.2051 30.3109 34.593 29.6987C33.9809 29.0866 33.2315 28.7805 32.3449 28.7805C31.4584 28.7805 30.709 29.0866 30.0969 29.6987C29.4848 30.3109 29.1787 31.0602 29.1787 31.9468C29.1787 32.8333 29.4848 33.5827 30.0969 34.1948C30.709 34.807 31.4584 35.1131 32.3449 35.1131ZM16.5136 34.4798H21.5796V29.4138H16.5136V34.4798ZM22.9095 21.1815H27.8488L25.3792 17.192L22.9095 21.1815Z" fill="white"/>
</g>
</svg>
